<svg xmlns="http://www.w3.org/2000/svg" viewBox="0 0 623.04 604"><defs><style>.cls-1{fill:none;}.cls-1,.cls-2{stroke:#393e41;stroke-linecap:round;stroke-linejoin:round;stroke-width:5px;}.cls-2{fill:#008eba;}</style></defs><title>Middel 6</title><g id="Laag_2" data-name="Laag 2"><g id="Laag_7_kopie_2" data-name="Laag 7 kopie 2"><path class="cls-1" d="M602.81,265.9A184.16,184.16,0,0,1,580.15,302"/><path class="cls-1" d="M614.25,234.84a182.68,182.68,0,0,1-6.39,19.4"/><path class="cls-1" d="M620.06,173.67q.48,6.6.48,13.3a186,186,0,0,1-1.44,23.14"/><path class="cls-1" d="M600.35,103.07a183.11,183.11,0,0,1,16.4,46.57"/><path class="cls-1" d="M590.43,86.05c1.53,2.34,3,4.72,4.45,7.13"/><path class="cls-1" d="M553.87,45.2a184.77,184.77,0,0,1,28.58,29.65"/><path class="cls-1" d="M474.48,6.84a182.37,182.37,0,0,1,38.17,12.52"/><path class="cls-1" d="M436.47,2.91a185.56,185.56,0,0,1,23.72,1.51"/><line class="cls-1" x1="326.62" y1="141" x2="298.36" y2="141"/><line class="cls-1" x1="382.62" y1="141.01" x2="339.17" y2="141"/><path class="cls-1" d="M455.76,145.23A45.89,45.89,0,0,0,436.47,141H407.62"/><path class="cls-1" d="M481.41,196.94a46.39,46.39,0,0,0,1.07-9.92c0-1.1,0-2.2-.11-3.28a46,46,0,0,0-18-33.33"/><path class="cls-1" d="M436.47,233a46,46,0,0,0,42-27.27"/><line class="cls-1" x1="413" y1="94.5" x2="298" y2="94.5"/><path class="cls-1" d="M450,96a92.46,92.46,0,0,0-13.5-1"/><path class="cls-1" d="M492,113.76a90.91,90.91,0,0,0-32.7-15.91"/><path class="cls-1" d="M526,167.8a91,91,0,0,0-16.44-36.3"/><path class="cls-1" d="M521.27,220.76a91.07,91.07,0,0,0,6.66-34.32q0-4.4-.41-8.69"/><path class="cls-1" d="M505.52,246.42a92.62,92.62,0,0,0,9.39-12.92"/><path class="cls-1" d="M459.07,50.37a136.85,136.85,0,0,0-22.6-1.87H367"/><path class="cls-1" d="M534.46,89.68a138.19,138.19,0,0,0-53.69-33.5"/><path class="cls-1" d="M572.32,161.69a137.46,137.46,0,0,0-22.63-53.82"/><path class="cls-1" d="M574.22,198c.28-3.61.43-7.26.43-10.94"/><path class="cls-1" d="M547.07,269.94a137.5,137.5,0,0,0,25.25-57.43"/><path class="cls-1" d="M30.53,319.42A181.56,181.56,0,0,1,42.89,302"/><path class="cls-1" d="M7.37,374.84a183.21,183.21,0,0,1,12.12-35.09"/><path class="cls-1" d="M20,495.51A183.33,183.33,0,0,1,2.5,417.1q0-9.28.9-18.33"/><path class="cls-1" d="M63.25,553.75a185.25,185.25,0,0,1-31.78-37.48"/><path class="cls-1" d="M101.66,580.46q-7.62-4-14.81-8.62"/><path class="cls-1" d="M186.57,601.16a184.28,184.28,0,0,1-50-6.86"/><line class="cls-1" x1="286" y1="463.07" x2="324.68" y2="463.07"/><line class="cls-1" x1="240" y1="463.5" x2="252" y2="463.5"/><path class="cls-1" d="M158.09,453.2a45.82,45.82,0,0,0,28.48,9.86h37.18"/><path class="cls-1" d="M140.56,417.06a45.79,45.79,0,0,0,9.18,27.58"/><path class="cls-1" d="M186.57,371.05a45.91,45.91,0,0,0-33.9,14.9"/><line class="cls-1" x1="258" y1="509.5" x2="325" y2="509.5"/><path class="cls-1" d="M164.7,506.87a91.65,91.65,0,0,0,21.87,2.63H208"/><path class="cls-1" d="M106.55,462a91.94,91.94,0,0,0,35.55,35.6"/><path class="cls-1" d="M95.11,417.63a91.19,91.19,0,0,0,5.8,32.12"/><path class="cls-1" d="M96.16,403.71a90.91,90.91,0,0,1,5.5-20.14"/><path class="cls-1" d="M117.52,357.66a92.15,92.15,0,0,0-9.68,13.39"/><path class="cls-1" d="M121.91,539.37a136.77,136.77,0,0,0,64.66,16.13H256"/><path class="cls-1" d="M88.59,514.41a139.66,139.66,0,0,0,12.32,11"/><path class="cls-1" d="M51.56,446.54a137.63,137.63,0,0,0,26.13,55.52"/><path class="cls-1" d="M49.61,398.55a139.79,139.79,0,0,0-.53,32.3"/><path class="cls-1" d="M65,351.16a136.61,136.61,0,0,0-12.58,32.41"/><path class="cls-1" d="M76,334.13q-3,3.93-5.63,8.09"/><path class="cls-2" d="M436.44,371.5a46,46,0,1,1,0,92H324.68a23,23,0,0,0-23.18,22.79v.1a23.24,23.24,0,0,0,23.18,23.11H436.44a92,92,0,1,0,0-184H186.57c-76.25,0-138-62.26-138-138.5s61.8-138.5,138-138.5H436.44A22.87,22.87,0,0,0,459.5,25.7v-.09A23.14,23.14,0,0,0,436.44,2.5H186.57C84.91,2.5,2.5,85.34,2.5,187S84.91,371.5,186.57,371.5Z"/><path class="cls-2" d="M436.44,555.1c76.24,0,138.05-61.56,138.05-137.8s-61.81-137.8-138-137.8H186.57c-50.83,0-92-41.67-92-92.5s41.2-92.5,92-92.5H367.41a22.82,22.82,0,0,0,23-22.79v-.1a23.09,23.09,0,0,0-23-23.11H186.57c-76.25,0-138,62.26-138,138.5s61.8,138.5,138,138.5H436.44a91.85,91.85,0,1,1,0,183.7l-180.87-.06a23,23,0,0,0-23,23v0a23,23,0,0,0,23,23Z"/><path class="cls-2" d="M186.6,233.5a46,46,0,1,1,0-92H298.36a23.22,23.22,0,0,0,23-23.26v-.36c0-12.71-10.3-23.38-23-23.38H186.6c-50.83,0-92,41.67-92,92.5s41.2,92.5,92,92.5H436.47a138,138,0,1,1,0,276H186.6a22.85,22.85,0,0,0-23,22.83v.08a23.08,23.08,0,0,0,23,23.09H436.47c101.66,0,184.07-82.34,184.07-184s-82.41-184-184.07-184Z"/></g></g></svg>