<?xml version="1.0" standalone="no"?>
<!DOCTYPE svg PUBLIC "-//W3C//DTD SVG 20010904//EN"
 "http://www.w3.org/TR/2001/REC-SVG-20010904/DTD/svg10.dtd">
<svg version="1.0" xmlns="http://www.w3.org/2000/svg"
 width="624.000000pt" height="624.000000pt" viewBox="0 0 624.000000 624.000000"
 preserveAspectRatio="xMidYMid meet">
<metadata>
Created by potrace 1.11, written by Peter Selinger 2001-2013
</metadata>
<g transform="translate(0.000000,624.000000) scale(0.100000,-0.100000)"
fill="#000000" stroke="none">
<path d="M1709 6136 c-2 -2 -31 -6 -64 -10 -33 -3 -71 -8 -85 -11 -20 -4 -56
-11 -100 -20 -258 -53 -561 -200 -770 -374 -245 -204 -442 -469 -550 -741 -12
-30 -28 -71 -36 -90 -25 -62 -64 -226 -89 -370 -4 -19 -8 -118 -9 -220 -6
-360 69 -658 242 -960 289 -504 798 -847 1372 -924 85 -11 354 -14 1442 -15
835 -1 1356 -5 1389 -11 139 -27 260 -128 318 -269 28 -67 36 -197 16 -263
-47 -158 -166 -276 -319 -317 -26 -7 -255 -11 -652 -11 -661 0 -646 1 -726
-56 -63 -44 -93 -109 -93 -199 1 -79 19 -127 67 -174 l29 -29 -294 0 c-279 0
-296 -1 -344 -22 -99 -42 -154 -132 -149 -240 4 -73 22 -118 69 -168 l31 -32
-286 0 c-333 0 -361 -5 -434 -78 -76 -76 -94 -196 -44 -295 24 -46 92 -105
142 -124 39 -14 2682 -17 2783 -3 126 17 160 22 166 26 3 2 21 6 40 9 149 25
362 109 539 213 483 282 815 773 899 1332 22 147 24 413 4 529 -7 40 -15 91
-18 113 -18 121 -97 342 -177 496 -257 496 -757 870 -1292 967 -45 8 -97 17
-116 22 -19 4 -654 8 -1410 10 -882 2 -1393 7 -1424 13 -191 40 -334 210 -342
406 -8 198 108 365 301 432 58 20 79 21 671 22 335 0 624 4 640 9 74 21 131
67 166 134 17 32 22 59 22 117 0 82 -19 132 -69 183 l-28 27 289 1 c159 0 297
2 307 4 37 7 103 48 134 82 84 96 78 264 -14 349 l-26 24 285 0 c335 0 361 5
432 76 100 102 100 258 0 358 -84 82 30 76 -1485 76 -741 0 -1348 -2 -1350 -4z"/>
</g>
</svg>
